<svg width="403.2" height="124.21560646480027" viewBox="0 0 370 113.98753569438517" class="looka-1j8o68f"><defs id="SvgjsDefs1265"></defs><g id="SvgjsG1266" featurekey="5TMTKC-0" transform="matrix(1.247401286972626,0,0,1.247401286972626,-13.201664413536673,-5.376294717016866)" fill="#111111"><path xmlns="http://www.w3.org/2000/svg" d="M89.9395142,47.5261612c-3.7366638,18.2685776-19.9030838,32.0092392-39.2736893,32.0092392  c-19.3689251,0-35.5285912-13.7406616-39.271656-32.0092392c-0.5273972,2.6113396-0.8108349,5.3151321-0.8108349,8.0796661  c0,22.1405411,17.9456596,40.0841751,40.0824928,40.0841751c22.138855,0,40.0841751-17.943634,40.0841751-40.0841751  C90.75,52.8412933,90.4733124,50.1375008,89.9395142,47.5261612"></path><path xmlns="http://www.w3.org/2000/svg" d="M32.2457428,14.7985439c-1.8055687,1.1860523-3.5058575,2.5752354-5.0941219,4.1601257  c-12.6733799,12.6764164-12.6733799,33.2286911,0,45.9034195c6.3399067,6.3382111,14.64361,9.5066452,22.9540768,9.5066452  c8.308773,0,16.6158676-3.1684341,22.9527206-9.5066452c1.5848923-1.5831985,2.9686737-3.2936096,4.1550674-5.0944519  c-5.3974686,3.5655785-11.6287155,5.3481979-17.8599586,5.3481979c-8.3054008,0-16.6158638-3.1667404-22.9523849-9.5049515  C25.3129883,44.5210457,23.9288769,27.3993797,32.2457428,14.7985439"></path><path xmlns="http://www.w3.org/2000/svg" d="M59.3076401,4.3099961C44.57967,4.3116832,32.5126457,16.1182175,32.2622757,30.9035473  C32.0054932,45.8488159,43.9041443,58.16959,58.852787,58.41996c0.161293,0.0033722,0.3195457,0.0067482,0.4811707,0.0067482  c1.7002907,0,3.3675117-0.1582527,4.9756813-0.4599113C40.8727112,30.0863018,65.2257538,4.9592037,65.2257538,4.9592037  c-1.7532654-0.3920889-3.575367-0.61479-5.4436951-0.6458335C59.623806,4.3116832,59.4655533,4.3099961,59.3076401,4.3099961"></path></g><g id="SvgjsG1267" featurekey="7UBp9i-0" transform="matrix(4.210171699276717,0,0,4.210171699276717,120.58942447956333,2.9178207710326625)" fill="#111111"><path d="M8.5 5.720000000000001 l5.34 14.28 l-3.26 0 l-1.08 -3.18 l-5.34 0 l-1.12 3.18 l-3.18 0 l5.42 -14.28 l3.22 0 z M6.84 9.24 l-1.86 5.24 l3.7 0 l-1.8 -5.24 l-0.04 0 z M19.740000000000002 9.38 c1.4 0 2.54 0.35664 3.42 1.07 s1.36 1.6633 1.44 2.85 l-2.78 0 c-0.18666 -1.1867 -0.88666 -1.78 -2.1 -1.78 c-0.74666 0 -1.3367 0.30666 -1.77 0.92 s-0.65 1.4267 -0.65 2.44 c0 0.97334 0.20666 1.76 0.62 2.36 s0.99334 0.9 1.74 0.9 c1.2933 0 2.0466 -0.7 2.26 -2.1 l2.74 0 c-0.18666 1.3733 -0.71666 2.4234 -1.59 3.15 s-2.0034 1.09 -3.39 1.09 c-1.5333 0 -2.7866 -0.49 -3.76 -1.47 s-1.46 -2.2566 -1.46 -3.83 c0 -1.7067 0.48 -3.0666 1.44 -4.08 s2.24 -1.52 3.84 -1.52 z M29.86 6.5600000000000005 l0.000019531 3.1 l2.08 0 l0 1.9 l-2.08 0 l0 5.12 c0 0.48 0.08 0.8 0.24 0.96 s0.48 0.24 0.96 0.24 c0.34666 0 0.64 -0.02666 0.88 -0.08 l0 2.22 c-0.4 0.06666 -0.96 0.1 -1.68 0.1 c-1.0933 0 -1.9067 -0.18666 -2.44 -0.56 s-0.8 -1.02 -0.8 -1.94 l0 -6.06 l-1.72 0 l0 -1.9 l1.72 0 l0 -3.1 l2.84 0 z M36.22 5.720000000000001 l0 2.34 l-2.84 0 l0 -2.34 l2.84 0 z M36.22 9.66 l0 10.34 l-2.84 0 l0 -10.34 l2.84 0 z M40.459999999999994 9.66 l2.18 7.06 l0.04 0 l2.18 -7.06 l2.82 0 l-3.5 10.34 l-3.16 0 l-3.54 -10.34 l2.98 0 z M53.879999999999995 9.38 c1.6533 0 2.96 0.50334 3.92 1.51 s1.44 2.3234 1.44 3.95 c0 1.64 -0.49 2.9566 -1.47 3.95 s-2.2766 1.49 -3.89 1.49 c-1.64 0 -2.94 -0.50334 -3.9 -1.51 s-1.44 -2.3166 -1.44 -3.93 c0 -1.6667 0.49 -2.9934 1.47 -3.98 s2.27 -1.48 3.87 -1.48 z M51.379999999999995 14.84 c0 1.0533 0.21334 1.8666 0.64 2.44 s1.0467 0.86 1.86 0.86 c0.84 0 1.47 -0.29334 1.89 -0.88 s0.63 -1.3933 0.63 -2.42 c0 -1.0667 -0.21666 -1.8867 -0.65 -2.46 s-1.0633 -0.86 -1.89 -0.86 c-0.8 0 -1.4133 0.28666 -1.84 0.86 s-0.64 1.3933 -0.64 2.46 z"></path></g></svg>